# xmcd
#
# Track frame offsets:
#   150
#   12375
#   22578
#   32510
#   43801
#   59754
#   75479
#   85956
#   101916
#   117969
#   132399
#   146994
#   161211
#   172254
#   184574
#   201946
#   218949
#   230429
#   240311
#   252459
#
# Disc length: 3557 seconds
#
# Revision: 0
# Processed by: cddbd v1.5.1PL2 Copyright (c) Steve Scherf et al.
# Submitted via: GXTranscoder 2.0.1939
#
DISCID=200de314
DTITLE=JESSIE MORALES - MIS 20 EXITOS ORIGINALES
DYEAR=1900
DGENRE=Country
TTITLE0=CREO ESTAR SOÑANDO
TTITLE1=CUANDO DOS ALMAS
TTITLE2=PILARES DE CRISTAL
TTITLE3=QUE NO SE ENTERE
TTITLE4=TE PROPONGO UNA MENTIRA
TTITLE5=LLUVIA
TTITLE6=EL MELON
TTITLE7=NIEVES DE ENERO
TTITLE8=MI COMPA CHALINO
TTITLE9=TE HE PROMETIDO
TTITLE10=ALMA ENAMORADA
TTITLE11=LOCO
TTITLE12=CRUCILLO ESTRADA
TTITLE13=EL TIRADOR
TTITLE14=ME LLEGA, ME LLEGA
TTITLE15=MUCHACHITA
TTITLE16=BESANDO LA CRUZ
TTITLE17=SENTIMIENTO DE DOLOR
TTITLE18=ADIOS MADRE QUERIDA
TTITLE19=YO NO BAILO CON JUANA
EXTD=
EXTT0=
EXTT1=
EXTT2=
EXTT3=
EXTT4=
EXTT5=
EXTT6=
EXTT7=
EXTT8=
EXTT9=
EXTT10=
EXTT11=
EXTT12=
EXTT13=
EXTT14=
EXTT15=
EXTT16=
EXTT17=
EXTT18=
EXTT19=
PLAYORDER=
